<svg width="750" height="750" viewBox="0 0 750 750" fill="none" xmlns="http://www.w3.org/2000/svg">
<rect width="750" height="750" fill="white"/>
<path d="M644.48 350.497C667.513 306.061 691.37 240.23 624.567 187.712C557.76 135.189 491.784 174.719 460.747 203.301C442.84 219.791 426.539 238.922 412.263 255.674C403.941 265.441 396.307 274.399 389.446 281.554C343.205 329.776 296.724 342.607 231.902 360.501C206.633 367.477 178.578 375.221 146.664 386.132C59.8155 415.824 47.3196 443.767 57.3766 469.736C60.5977 468.385 63.9736 467.051 67.4986 465.736C126.149 443.861 226.107 427.36 342.098 427.36C490.205 427.36 644.238 480.879 701.87 523.749C693.083 506.083 670.286 487.144 649.419 469.807C632.429 455.693 616.719 442.641 610.889 432.204C599.218 411.312 606.996 401.865 620.172 385.861C627.421 377.057 636.304 366.268 644.48 350.497Z" fill="#EC6364"/>
<path d="M645.337 592.223L644.55 592.244L641.096 592.316C525.897 594.542 292.86 579.831 145.027 560.743C145.024 560.742 145.022 560.741 145.02 560.74L145.001 560.74C145.01 560.741 145.018 560.742 145.027 560.743C204.363 584.683 288.574 600.839 375 601.085C446.502 601.29 495.616 602.441 530.754 603.265C604.533 604.994 616.699 605.279 645.121 592.322L645.337 592.223Z" fill="#EC6364"/>
<path fill-rule="evenodd" clip-rule="evenodd" d="M348.964 447.42L351.791 447.602L347.607 514.695L345.592 517.232L342.492 515.105L348.964 447.42Z" fill="white"/>
<circle cx="562.057" cy="283.554" r="78.2548" fill="white"/>
<path fill-rule="evenodd" clip-rule="evenodd" d="M357.203 359.81C357.203 359.81 357.029 355.32 362.38 355.056C367.726 354.791 411.401 359.81 411.401 359.81C411.401 359.81 420.799 361.164 419.247 371.724C417.691 382.285 412.018 406.622 412.018 406.622C412.018 406.622 412.684 410.785 405.86 409.68C399.036 408.575 378.775 403.307 357.203 406.651C357.203 406.651 353.64 407.069 353.743 422.219L351.79 421.859C351.79 421.859 354.641 364.06 357.203 359.81Z" fill="white"/>
<path fill-rule="evenodd" clip-rule="evenodd" d="M389.258 324.077C389.68 323.626 389.258 324.077 389.258 324.077C387.544 325.914 386.088 327.549 385.148 328.728C380.667 334.364 374.662 339.707 372.237 343.791C372.237 343.791 361.503 348.683 357.203 343.597C357.203 343.597 367.064 330.665 374.886 324.888C374.886 324.888 382.483 321.147 389.258 324.077ZM397.592 315.453L389.655 313.148C389.655 313.148 397.704 308.132 402.165 306.233L405.86 307.234C405.86 307.234 402.041 310.967 397.592 315.453C397.48 315.573 397.592 315.453 397.592 315.453Z" fill="white"/>
<path fill-rule="evenodd" clip-rule="evenodd" d="M265.811 530.578C265.811 530.578 251.848 527.482 248.525 511.517C248.525 511.517 251.07 506.911 261.048 496.247C261.048 496.247 273.661 488.149 271.584 475.312C271.584 475.312 257.824 471.745 262.426 450.838L265.36 445.479C265.36 445.479 262.111 422.268 264.863 408.525C264.863 408.525 262.318 390.996 272.92 389.738C272.92 389.738 277.381 389.084 277.874 387.338C277.874 387.338 271.343 369.249 290.462 360.481C309.576 351.716 324.449 366.816 323.849 382.91C323.849 382.91 322.194 393.926 315.449 398.854C315.449 398.854 329.936 407.917 338.002 419.831C338.002 419.831 347.019 429.183 350.983 427.606C350.983 427.606 363.071 427.342 361.424 431.567C359.781 435.788 358.623 441.838 340.923 442.756C340.923 442.756 323.812 440.563 319.351 440.439L316.214 439.342C316.214 439.342 320.075 447.532 315.875 455.341C311.674 463.145 308.62 465.848 309.072 467.362L318.374 510.863C318.374 510.863 317.704 518.208 325.926 516.922C334.149 515.63 331.968 520.65 330.33 521.854C328.691 523.063 315.142 534.65 303.771 519.872C292.399 505.09 290.727 502.053 290.727 502.053L267.987 517.973C267.987 517.973 266.22 519.69 267.507 523.687C267.507 523.687 269.965 529.605 265.811 530.578Z" fill="white"/>
<path fill-rule="evenodd" clip-rule="evenodd" d="M473.83 289.892C469.776 198.84 563.498 203.271 563.698 203.3C675.598 219.853 648.964 361.809 562.245 366.3C562.185 366.304 477.328 368.462 473.83 289.892ZM477.045 289.784C474.603 234.941 510.746 216.93 536.995 211.07C537.084 211.163 537.199 211.263 537.334 211.37C539.138 212.806 540.926 214.128 543.351 214.595C544.773 214.868 546.15 215.366 547.528 215.865L547.529 215.865C548.591 216.249 549.655 216.634 550.742 216.916C552.18 217.29 553.676 217.457 555.167 217.623C555.598 217.671 556.028 217.719 556.456 217.772C556.852 217.821 557.255 217.824 557.657 217.826C558.164 217.829 558.67 217.832 559.159 217.928C559.805 218.055 560.442 218.237 561.078 218.419C561.867 218.644 562.654 218.869 563.458 218.989C564.029 219.074 564.621 219.045 565.211 219.015C565.917 218.98 566.62 218.946 567.278 219.107C569.007 219.531 570.686 220.183 572.358 220.832C572.595 220.924 572.831 221.016 573.067 221.107L573.444 221.252L573.444 221.252C575.216 221.935 576.998 222.622 578.683 223.487C580.301 224.317 581.811 224.155 582.672 222.702C583.984 220.493 585.362 218.434 588.283 218.165C588.849 218.113 589.399 217.872 589.948 217.631C590.199 217.521 590.449 217.412 590.7 217.32L590.404 217.204C589.679 216.919 588.955 216.634 588.234 216.341C588.22 216.336 588.223 216.3 588.226 216.261C588.229 216.215 588.233 216.165 588.213 216.152C586.471 214.879 583.582 215.921 582.606 217.795C582.006 218.948 580.847 220.093 579.664 220.595C578.454 221.108 577.435 220.472 576.357 219.799L576.356 219.799C575.912 219.521 575.457 219.237 574.975 219.026C572.91 218.409 571.048 217.798 569.194 217.172C568.612 216.976 568.033 216.766 567.455 216.556L567.453 216.555L567.453 216.555C566.219 216.107 564.986 215.66 563.719 215.346C563.084 215.188 562.411 215.199 561.735 215.211C561.208 215.219 560.679 215.228 560.164 215.157C559.15 215.017 558.141 214.829 557.132 214.642L557.131 214.642C556.013 214.434 554.894 214.226 553.767 214.082C553.02 213.987 552.254 213.966 551.492 213.945C550.252 213.91 549.018 213.876 547.878 213.523C547.461 213.394 547.056 213.244 546.654 213.096C545.599 212.707 544.556 212.322 543.322 212.305C542.229 212.289 540.955 211.538 540.11 210.744C540.002 210.642 539.897 210.555 539.795 210.482C553.086 207.866 563.206 208.315 563.269 208.325C664.444 223.988 643.617 358.028 562.245 362.242C562.189 362.245 480.327 363.509 477.045 289.784ZM248.795 516.695L248.88 516.944C249.406 518.483 250.303 519.895 251.226 521.349C251.586 521.917 251.95 522.491 252.298 523.081C252.522 523.355 252.726 523.624 252.922 523.883L252.922 523.884L252.922 523.884L252.923 523.885L252.923 523.885L252.923 523.885L252.923 523.885C253.277 524.353 253.606 524.789 253.993 525.166C256.459 527.571 259.153 529.677 262.357 531.018C262.571 531.109 262.847 531.055 263.123 531.002C263.399 530.949 263.675 530.896 263.887 530.989C266.763 532.259 269.617 530.629 269.502 527.459C269.462 526.37 269.136 525.293 268.808 524.212C268.579 523.457 268.35 522.7 268.216 521.934C268.079 521.14 268.219 520.122 268.628 519.443C269.702 517.664 271.407 516.58 273.204 515.524C274.052 515.027 274.773 514.32 275.497 513.611L275.497 513.611L275.497 513.611L275.497 513.611L275.498 513.61L275.498 513.61L275.498 513.61L275.499 513.609C276.063 513.057 276.628 512.502 277.257 512.044C278.256 511.318 279.317 510.68 280.379 510.041C281.156 509.574 281.933 509.107 282.686 508.605C283.204 508.259 283.69 507.872 284.176 507.487C285.321 506.578 286.463 505.672 288.015 505.282C289.979 504.794 292.03 505.415 293.199 507.244C293.7 508.027 294.295 508.75 294.89 509.472C295.342 510.021 295.794 510.57 296.206 511.146C297.204 512.541 298.144 513.985 299.022 515.458C299.375 516.048 299.682 516.674 299.989 517.299L299.989 517.299C300.521 518.382 301.051 519.463 301.813 520.35C302.851 521.557 304.045 522.629 305.241 523.703C306.053 524.433 306.866 525.163 307.632 525.936C309.788 528.113 312.566 528.684 315.378 528.924C316.822 529.043 318.283 528.76 319.709 528.483L319.709 528.483C320.604 528.309 321.486 528.138 322.34 528.071C323.471 527.984 324.371 527.537 325.255 527.099C326.079 526.691 326.888 526.29 327.855 526.193C328.761 526.101 329.598 525.334 330.435 524.566C330.809 524.223 331.183 523.881 331.563 523.598C333.962 521.814 334.041 518.504 331.641 516.82C331.396 516.649 331.033 516.636 330.674 516.623C330.301 516.609 329.93 516.596 329.699 516.406C327.853 514.895 325.876 515.297 323.855 515.735C322.069 516.12 319.895 514.142 319.92 512.326C319.93 511.586 319.733 510.838 319.538 510.102L319.538 510.102C319.488 509.911 319.437 509.721 319.391 509.532C319.278 509.066 319.135 508.605 318.992 508.144L318.992 508.143C318.736 507.315 318.48 506.489 318.397 505.646C318.324 504.907 318.144 504.194 317.964 503.48C317.728 502.545 317.491 501.608 317.496 500.61C317.499 500.012 317.267 499.419 317.033 498.82C316.861 498.38 316.688 497.937 316.607 497.486C316.488 496.835 316.441 496.172 316.394 495.509V495.509V495.509C316.344 494.819 316.295 494.13 316.167 493.455C315.993 492.544 315.764 491.643 315.536 490.744L315.536 490.743L315.535 490.742C315.277 489.722 315.018 488.703 314.84 487.67C314.708 486.905 314.707 486.118 314.707 485.329C314.706 484.817 314.706 484.305 314.67 483.797C314.648 483.498 314.647 483.174 314.646 482.848C314.643 481.928 314.64 480.979 314.178 480.457C313.61 479.818 313.634 479.152 313.659 478.473C313.679 477.907 313.7 477.333 313.38 476.758C312.767 475.656 312.731 474.225 312.696 472.805V472.804C312.683 472.273 312.669 471.743 312.626 471.233C312.596 470.881 312.638 470.486 312.68 470.097V470.096V470.096V470.096V470.096V470.095V470.095V470.095V470.094V470.094V470.094V470.094V470.093V470.093V470.093V470.092V470.092V470.092V470.092C312.751 469.426 312.821 468.781 312.525 468.403C311.44 467.022 312.065 465.651 312.527 464.636C312.554 464.578 312.58 464.52 312.605 464.464C313.36 462.786 314.258 461.172 315.156 459.558L315.156 459.557C316.118 457.828 317.079 456.1 317.865 454.293C318.596 452.611 318.829 450.692 319.057 448.808C319.103 448.431 319.149 448.054 319.198 447.682C319.287 447.009 319.262 446.319 319.237 445.631V445.631V445.63V445.63V445.63V445.63V445.629V445.629V445.629V445.629V445.628V445.628V445.628V445.628V445.628V445.627V445.627V445.627V445.627V445.626V445.626V445.626C319.21 444.86 319.182 444.095 319.312 443.356C319.405 442.832 320.125 442.382 320.735 442C320.827 441.943 320.917 441.887 321.001 441.832C321.063 441.793 321.202 441.915 321.37 442.062C321.565 442.232 321.798 442.436 321.993 442.461C322.547 442.533 323.153 442.527 323.755 442.521C324.926 442.51 326.083 442.498 326.817 443.056C328.134 444.056 329.516 444.003 330.835 443.952C331.38 443.931 331.915 443.911 332.429 443.966C335.315 444.272 338.253 444.091 341.191 443.91L341.191 443.91L341.192 443.91L341.193 443.91L341.193 443.91L341.194 443.91L341.195 443.91L341.195 443.91L341.196 443.91L341.197 443.91L341.197 443.91L341.198 443.91L341.198 443.909L341.199 443.909L341.2 443.909L341.2 443.909L341.201 443.909L341.202 443.909L341.202 443.909C342.353 443.838 343.504 443.767 344.652 443.726C345.411 443.699 346.177 443.668 346.925 443.548C350.649 442.947 354.309 442.078 357.255 439.56C358.165 438.783 358.928 437.834 359.691 436.885C360.011 436.488 360.331 436.091 360.661 435.707C361.539 434.684 361.869 433.519 362.243 432.187C362.936 429.722 361.396 426.63 358.729 426.829C357.633 426.91 356.892 426.567 356.011 426.144C355.485 425.891 354.776 425.887 354.169 425.955C353.749 426.003 353.326 426.083 352.904 426.164C351.192 426.49 349.498 426.813 348.124 424.891C347.837 424.489 347.271 424.272 346.726 424.063C346.566 424.002 346.409 423.941 346.26 423.877C345.953 423.744 345.619 423.646 345.287 423.549C344.693 423.376 344.104 423.204 343.684 422.834C341.957 421.315 340.349 419.649 338.794 417.95C337.999 417.082 337.246 416.175 336.493 415.268L336.493 415.267L336.492 415.267L336.492 415.267L336.492 415.267L336.492 415.267L336.492 415.266L336.491 415.266L336.491 415.266L336.491 415.266L336.491 415.266L336.491 415.266L336.491 415.265L336.49 415.265L336.49 415.265L336.49 415.265L336.49 415.265L336.49 415.264L336.489 415.264L336.489 415.264L336.489 415.264L336.489 415.264C335.711 414.326 334.932 413.389 334.108 412.495C332.482 410.73 330.778 409.028 329.013 407.402C327.564 406.067 326.018 404.824 324.434 403.65C323.282 402.797 322.042 402.06 320.806 401.324L320.453 401.114C318.816 400.138 318.681 398.42 318.645 396.879C318.637 396.518 319.279 396.142 319.922 395.766C320.218 395.592 320.514 395.419 320.747 395.247C320.801 395.206 320.86 395.158 320.892 395.1C321.164 394.605 321.438 394.111 321.713 393.616C322.521 392.158 323.33 390.7 324.096 389.219C324.295 388.835 324.373 388.387 324.451 387.941V387.941L324.451 387.941L324.451 387.94C324.48 387.776 324.508 387.611 324.543 387.45C324.665 386.884 324.807 386.317 324.949 385.751C325.322 384.265 325.694 382.779 325.71 381.29C325.718 380.558 325.568 379.567 325.424 378.706C325.151 377.073 324.863 375.434 324.416 373.844C324.256 373.274 323.979 372.738 323.701 372.201C323.49 371.792 323.278 371.382 323.117 370.955C322.919 370.433 322.777 369.87 322.636 369.309L322.636 369.309C322.371 368.263 322.109 367.224 321.492 366.467C320.931 365.779 320.462 365.01 319.992 364.24L319.991 364.239L319.991 364.239C318.897 362.446 317.798 360.643 315.526 359.835C314.61 359.508 313.742 359.006 312.878 358.506C311.724 357.838 310.579 357.176 309.341 356.946C306.149 356.352 302.808 356.406 299.534 356.461C296.955 356.505 294.276 356.615 291.844 357.359C290.091 357.896 288.321 358.761 286.642 359.886C286.336 360.091 286.025 360.295 285.712 360.499C284.11 361.545 282.472 362.614 281.424 364.02C281.02 364.562 280.554 365.081 280.084 365.605C278.664 367.185 277.206 368.808 277.303 371.24C275.707 372.149 275.661 373.711 275.619 375.16C275.606 375.613 275.593 376.055 275.534 376.462L275.527 376.509C275.278 378.202 275.011 380.014 275.399 382.013C275.874 384.461 276.412 386.659 277.69 388.761C278.446 390.005 279.07 391.327 276.974 392.018C276.681 392.115 276.32 392.369 276.222 392.635C275.723 393.993 275.049 395.223 273.611 395.707C272.292 396.152 272.39 397.076 272.487 397.983C272.512 398.215 272.537 398.447 272.537 398.668C272.538 398.786 273.642 399.167 273.911 398.975C274.729 398.388 275.519 397.762 276.31 397.136L276.31 397.136L276.311 397.135L276.311 397.135L276.312 397.135L276.312 397.134L276.313 397.134L276.313 397.133C277.398 396.275 278.481 395.416 279.634 394.662C280.33 394.207 281.557 394.143 282.383 394.402C283.28 394.683 284.122 395.131 284.966 395.58L284.966 395.58C285.48 395.853 285.994 396.126 286.521 396.363C287.88 396.971 289.252 397.55 290.624 398.128L290.624 398.128C291.342 398.43 292.059 398.733 292.775 399.04C293.709 399.44 293.879 399.965 293.009 400.641C292.562 400.989 292.113 401.335 291.665 401.681L291.655 401.688L291.655 401.688L291.655 401.689L291.654 401.689L291.654 401.689L291.653 401.69L291.653 401.69L291.653 401.69L291.652 401.691L291.652 401.691L291.651 401.691L291.651 401.692L291.651 401.692L291.65 401.692L291.65 401.692L291.649 401.693L291.649 401.693L291.648 401.693L291.648 401.694L291.648 401.694L291.647 401.694C290.479 402.596 289.312 403.497 288.163 404.422C284.973 406.994 283.368 410.563 282.928 414.43C282.625 417.101 282.921 420.041 283.775 422.583C284.45 424.592 285.829 426.397 287.173 428.157L287.173 428.157L287.176 428.16C287.416 428.475 287.655 428.787 287.889 429.1C289.634 431.432 292.118 432.814 294.589 434.189C295.296 434.582 296.002 434.975 296.688 435.389C298.278 436.346 300.121 436.935 301.911 437.491C302.791 437.764 303.704 437.932 304.616 438.1L304.617 438.1C305.346 438.234 306.076 438.368 306.791 438.556C307.444 438.728 308.079 438.969 308.714 439.209C309.306 439.433 309.897 439.657 310.504 439.826C311.597 440.13 312.705 440.379 313.813 440.628L313.813 440.628L313.815 440.629L313.816 440.629L313.818 440.629L313.819 440.63L313.821 440.63L313.822 440.631L313.824 440.631C314.372 440.754 314.92 440.877 315.467 441.007C315.474 441.009 315.478 441.02 315.48 441.036C315.482 441.047 315.483 441.061 315.484 441.076L315.484 441.077C315.487 441.12 315.491 441.169 315.512 441.186C316.249 441.77 317.287 446.17 317.002 447.021C316.484 448.565 316.044 450.136 315.605 451.706L315.604 451.708L315.515 452.026C315.42 452.366 315.36 452.723 315.3 453.079L315.3 453.079C315.192 453.721 315.085 454.359 314.775 454.881L314.481 455.378C313.126 457.671 311.757 459.987 310.074 462.028C308.4 464.057 306.445 465.969 303.951 467.034C303.464 467.243 303.046 467.563 302.623 467.887C301.756 468.552 300.874 469.228 299.348 468.961C298.528 468.818 297.525 469.71 296.526 470.599C296.085 470.991 295.645 471.383 295.221 471.684C295.118 471.756 295.041 471.866 294.963 471.976C294.928 472.024 294.894 472.073 294.857 472.119C294.874 472.124 294.89 472.129 294.907 472.134L294.932 472.143L294.953 472.15L294.97 472.157L294.99 472.164L295.036 472.181C295.16 472.229 295.284 472.276 295.409 472.276C295.838 472.281 296.27 472.269 296.701 472.258C297.586 472.233 298.47 472.209 299.332 472.334C300.17 472.454 301.667 473.153 301.629 473.418C301.43 474.801 301.349 476.191 301.268 477.585V477.585C301.138 479.818 301.007 482.06 300.386 484.297C299.994 485.705 299.358 486.97 298.726 488.227C298.246 489.18 297.769 490.129 297.401 491.134C296.434 493.778 294.072 496.1 291.874 498.065C289.994 499.749 287.909 501.205 285.825 502.66C284.785 503.387 283.745 504.113 282.729 504.868C281.524 505.769 280.342 506.7 279.16 507.632C278.472 508.173 277.785 508.715 277.092 509.251L276.885 509.41C275.826 510.227 274.765 511.044 273.68 511.829C273.239 512.147 272.805 512.482 272.37 512.817C271.234 513.693 270.096 514.57 268.826 515.16C266.785 516.104 265.527 517.651 265.543 519.621C265.555 521.062 265.946 522.497 266.338 523.935L266.338 523.935C266.534 524.653 266.73 525.372 266.879 526.093C266.969 526.525 266.975 526.974 266.981 527.423C266.984 527.629 266.986 527.834 266.997 528.038C266.583 528.026 266.157 528.045 265.73 528.064C264.768 528.108 263.805 528.151 262.986 527.827C262.004 527.44 261.116 526.827 260.225 526.212C259.6 525.781 258.974 525.349 258.313 524.993C255.933 523.71 254.624 521.533 253.37 519.327C252.474 517.748 251.726 516.078 250.984 514.418L250.882 514.192C250.856 514.134 250.829 514.073 250.8 514.011C250.506 513.363 250.13 512.535 250.358 512.09C251.107 510.633 252.091 509.272 253.135 507.997C255.206 505.466 257.342 502.988 259.478 500.51L260.216 499.654C260.521 499.299 260.82 498.934 261.119 498.569C261.984 497.511 262.853 496.45 263.901 495.62C266.771 493.348 269.072 490.67 271.087 487.629C272.656 485.258 273.272 482.874 272.686 480.126C272.65 479.951 272.765 479.746 272.88 479.54C272.934 479.443 272.988 479.347 273.027 479.253C272.534 479.128 272.041 479.003 271.548 478.877L271.528 478.872L271.508 478.867C271.016 478.741 270.524 478.616 270.032 478.492C269.984 478.695 269.918 478.901 269.851 479.107C269.706 479.553 269.561 480 269.606 480.428C269.956 483.772 268.89 486.271 266.357 488.701C263.11 491.815 260.13 495.212 257.151 498.607L257.149 498.609C256.159 499.738 255.169 500.866 254.169 501.984C253.637 502.579 253.077 503.139 252.518 503.697C250.604 505.612 248.711 507.505 248.055 510.67C247.555 513.086 248.163 514.857 248.795 516.695ZM342.152 440.269L342.15 440.269L342.149 440.269L342.147 440.269L342.146 440.269L342.145 440.269C341.306 440.333 340.464 440.396 339.617 440.445C326.817 441.186 312.315 437.396 311.292 436.922C310.176 436.405 308.954 436.112 307.733 435.819C307.248 435.703 306.763 435.587 306.285 435.457C305.872 435.344 305.456 435.241 305.04 435.138C304.389 434.976 303.738 434.815 303.097 434.617C301.375 434.086 299.661 433.521 297.961 432.925C297.351 432.711 296.76 432.41 296.208 432.071C295.802 431.822 295.387 431.583 294.972 431.343L294.971 431.343L294.971 431.343C293.815 430.677 292.657 430.01 291.699 429.128C290.748 428.251 290.059 427.067 289.384 425.907L289.384 425.907L289.384 425.907L289.323 425.803C289.22 425.625 289.116 425.448 289.012 425.273C288.27 424.026 287.594 422.711 287.052 421.375C284.773 415.757 287.628 409.688 288.826 407.738C290.342 405.272 293.165 403.916 295.468 403.5C297.443 403.143 300.051 403.061 302.444 403.887C304.09 404.455 305.523 405.315 306.949 406.171C307.796 406.679 308.641 407.186 309.526 407.629C312.501 409.118 315.163 411.049 317.803 412.964L318.113 413.189C319.637 414.294 320.945 415.688 322.257 417.085C323.063 417.943 323.87 418.803 324.728 419.597C326.06 420.829 327.497 421.948 328.932 423.066C329.271 423.33 329.611 423.595 329.949 423.861C330.303 424.14 330.654 424.429 331.005 424.719L331.006 424.719C332.068 425.596 333.134 426.476 334.333 427.088C335.852 427.864 337.487 428.419 339.118 428.973L339.119 428.973L339.119 428.973L339.12 428.974L339.12 428.974L339.121 428.974L339.121 428.974L339.122 428.974L339.122 428.974L339.123 428.975L339.124 428.975L339.124 428.975L339.125 428.975L339.125 428.975L339.126 428.976C339.647 429.153 340.169 429.33 340.686 429.514C341.943 429.962 343.216 430.386 344.51 430.705C344.654 430.74 344.799 430.777 344.944 430.814L344.945 430.814L344.946 430.814C345.959 431.071 347.005 431.336 348.006 431.254C350.92 431.016 351.054 430.914 353.481 429.068L353.481 429.068C353.611 428.97 353.747 428.866 353.891 428.757C354.184 428.535 354.672 428.373 355.015 428.444C357.023 428.864 359.084 429.37 360.386 431.043C360.669 431.406 359.993 432.879 359.399 433.491C359.288 433.605 359.177 433.72 359.067 433.834C357.296 435.667 355.563 437.46 352.991 438.516C350.759 439.433 348.646 439.957 346.302 440.022C344.915 440.061 343.537 440.165 342.153 440.269L342.152 440.269ZM278.732 385.07C278.72 384.86 278.707 384.651 278.683 384.45C278.575 383.548 278.48 382.644 278.384 381.741L278.384 381.738C278.345 381.366 278.305 380.995 278.265 380.623C278.493 378.74 278.693 377.266 278.956 375.804C279.003 375.542 279.043 375.275 279.083 375.007C279.211 374.145 279.341 373.273 279.723 372.54C280.158 371.703 280.703 370.924 281.249 370.144C281.772 369.396 282.295 368.649 282.722 367.849C284.175 365.13 286.696 363.784 289.182 362.458C289.849 362.102 290.514 361.747 291.155 361.367C292.529 360.553 294.241 360.285 295.932 360.021C296.475 359.936 297.016 359.851 297.543 359.749C298.931 359.48 300.367 359.315 301.778 359.342C304.035 359.385 306.212 359.905 308.422 360.459C311.431 361.213 313.847 362.761 316.058 364.73C316.511 365.133 316.774 365.748 317.037 366.365L317.037 366.366C317.166 366.666 317.294 366.968 317.445 367.245C317.757 367.816 318.073 368.385 318.389 368.954L318.389 368.955L318.392 368.959L318.394 368.963L318.394 368.963L318.394 368.963L318.394 368.964L318.394 368.964L318.395 368.964L318.395 368.965L318.395 368.965L318.395 368.965L318.395 368.966L318.396 368.966L318.396 368.966L318.396 368.967L318.396 368.967L318.396 368.967L318.396 368.968L318.397 368.968L318.397 368.968L318.397 368.969L318.397 368.969L318.397 368.969C318.929 369.926 319.461 370.883 319.97 371.852C320.682 373.206 319.496 374.729 317.931 374.812C316.837 374.869 308.739 375.555 305.814 378.118C303.32 380.304 302.714 381.144 301.737 382.497C301.568 382.731 301.389 382.98 301.186 383.254C300.468 384.226 299.859 388.684 300.249 389.872C300.59 390.911 301.058 391.907 301.526 392.905L301.526 392.905L301.526 392.905L301.526 392.905L301.526 392.906L301.526 392.906L301.526 392.906L301.526 392.906L301.526 392.907L301.527 392.907L301.527 392.907L301.527 392.907L301.527 392.907L301.527 392.908L301.527 392.908L301.527 392.908L301.527 392.908L301.527 392.909L301.527 392.909L301.527 392.909L301.528 392.909L301.528 392.91C301.902 393.707 302.276 394.505 302.587 395.326C302.809 395.913 302.862 396.564 302.915 397.214C302.939 397.51 302.963 397.805 303.003 398.094C302.717 398.086 302.429 398.089 302.14 398.093C301.486 398.1 300.831 398.108 300.204 397.981C299.507 397.839 298.834 397.575 298.161 397.311L298.16 397.311C297.86 397.193 297.56 397.076 297.258 396.969C295.955 396.508 294.651 396.048 293.346 395.588L291.395 394.9C290.974 394.751 290.548 394.613 290.122 394.476C289.183 394.172 288.243 393.869 287.36 393.449C284.027 391.866 280.91 389.952 279.039 386.605C278.798 386.173 278.765 385.619 278.732 385.07ZM313.113 493.643C313.319 494.495 313.525 495.348 313.714 496.203C313.745 496.344 313.651 496.511 313.558 496.677C313.514 496.754 313.471 496.832 313.44 496.907C313.716 498.471 313.977 499.625 314.27 500.772C314.479 501.584 314.694 502.396 314.909 503.208L314.909 503.21C315.32 504.763 315.732 506.315 316.097 507.877C316.299 508.746 316.396 509.685 316.311 510.567C316.082 512.942 318.823 518.094 321.01 518.45C322.498 518.693 324.027 518.671 325.559 518.648C326.508 518.634 327.458 518.62 328.401 518.669C329.141 518.707 329.945 519.054 330.538 519.501C330.723 519.642 330.486 520.73 330.141 521.107C329.332 521.988 328.403 522.795 327.41 523.461C323.894 525.829 319.88 525.791 315.881 525.655C312.345 525.535 309.121 524.724 306.975 521.504C305.967 519.992 304.902 518.519 303.836 517.045C303.178 516.134 302.52 515.223 301.875 514.304C301.335 513.532 300.81 512.75 300.284 511.969C299.641 511.013 298.998 510.057 298.328 509.118C297.823 508.412 297.286 507.723 296.75 507.034C295.595 505.55 294.441 504.067 293.607 502.423C293.173 501.566 294.047 499.654 294.849 498.641C295.703 497.561 296.67 496.568 297.637 495.577C298.741 494.444 299.844 493.312 300.777 492.052C301.225 491.445 301.381 490.612 301.536 489.784C301.699 488.913 301.861 488.049 302.361 487.459C303.633 485.962 303.651 484.294 303.668 482.655C303.675 481.947 303.682 481.245 303.79 480.565C303.948 479.576 304.094 478.583 304.24 477.588L304.241 477.586C304.547 475.504 304.854 473.417 305.265 471.361C305.417 470.607 306.223 469.97 306.999 469.356C307.258 469.151 307.514 468.949 307.741 468.746C307.843 468.655 308.635 469.019 308.739 469.305C309.087 470.265 309.353 471.275 309.495 472.288C309.664 473.496 309.806 474.709 309.948 475.922L309.948 475.922L309.948 475.923L309.948 475.923L309.948 475.924L309.948 475.924L309.948 475.925L309.948 475.925L309.949 475.926L309.949 475.926L309.949 475.927L309.949 475.927L309.949 475.927L309.949 475.928L309.949 475.928L309.949 475.929L309.949 475.929L309.949 475.93L309.95 475.931C310.136 477.519 310.322 479.107 310.569 480.685C310.697 481.502 310.924 482.303 311.15 483.105L311.15 483.105L311.151 483.106L311.151 483.106L311.151 483.107L311.151 483.107L311.151 483.108L311.151 483.108L311.151 483.109L311.151 483.109L311.151 483.109L311.151 483.11L311.151 483.11L311.152 483.111L311.152 483.111L311.152 483.112L311.152 483.112L311.152 483.113L311.152 483.113L311.152 483.114L311.152 483.114L311.153 483.115L311.153 483.116L311.153 483.116L311.153 483.117L311.153 483.117L311.153 483.118L311.153 483.118L311.153 483.119L311.153 483.119L311.153 483.12L311.153 483.12L311.154 483.12L311.154 483.121L311.154 483.121L311.154 483.122L311.154 483.122L311.154 483.123L311.154 483.123L311.154 483.124C311.353 483.827 311.552 484.531 311.684 485.245C311.817 485.962 311.88 486.692 311.944 487.421L311.944 487.422V487.422C312.01 488.183 312.077 488.944 312.221 489.69C312.477 491.01 312.793 492.319 313.109 493.628L313.109 493.629L313.11 493.63L313.11 493.63L313.11 493.631L313.11 493.632L313.11 493.633L313.11 493.633L313.111 493.634L313.111 493.635L313.111 493.635L313.111 493.636L313.111 493.637L313.112 493.638L313.112 493.638L313.112 493.639L313.112 493.64L313.112 493.641L313.112 493.641L313.113 493.642L313.113 493.643ZM310.786 398.05C310.01 398.279 308.737 397.651 308.016 397.033C307.375 396.484 306.896 395.747 306.417 395.01C306.21 394.692 306.004 394.375 305.784 394.072C305.589 393.779 305.395 393.5 305.207 393.232C304.6 392.36 304.063 391.589 303.762 390.735C303.579 390.216 303.578 389.637 303.578 389.054C303.578 388.588 303.578 388.119 303.484 387.676C303.049 385.621 304.16 384.337 305.305 383.012L305.306 383.011C305.473 382.817 305.642 382.622 305.806 382.424C307.133 380.825 308.765 379.638 310.566 378.736C311.599 378.219 312.851 378.003 314.021 377.927C314.775 377.878 315.54 377.912 316.303 377.945C317.405 377.994 318.503 378.042 319.557 377.84C320.734 377.615 321.104 378.173 321.494 378.801C321.856 379.386 322.081 380.145 322.101 380.835C322.153 382.659 322.092 384.488 321.995 386.311C321.988 386.455 321.831 386.586 321.67 386.719C321.513 386.85 321.353 386.984 321.328 387.134C320.761 390.624 318.623 393.251 316.207 395.493C314.8 396.798 312.695 397.486 310.786 398.05ZM335.689 424.166C335.65 424.208 335.611 424.249 335.579 424.281C335.276 424.018 334.981 423.762 334.693 423.512C333.508 422.482 332.437 421.551 331.316 420.686C331.033 420.467 330.688 420.324 330.344 420.182C329.969 420.027 329.596 419.872 329.305 419.621C328.319 418.769 327.366 417.881 326.413 416.993C325.605 416.24 324.798 415.488 323.971 414.758C322.278 413.264 320.541 411.82 318.787 410.398C318.419 410.1 318.054 409.796 317.689 409.492C316.446 408.457 315.199 407.419 313.827 406.595C312.527 405.815 311.142 405.177 309.757 404.539L309.756 404.538C308.918 404.152 308.08 403.766 307.26 403.349C306.352 402.886 305.499 402.314 304.648 401.744C304.521 401.658 304.393 401.573 304.265 401.488C304.244 401.474 304.524 400.749 304.709 400.727C305.376 400.646 306.053 400.526 306.731 400.406L306.732 400.406C308.48 400.097 310.236 399.787 311.849 400.131C314.131 400.617 316.438 401.439 318.6 402.927C322.165 405.381 325.315 408.189 328.308 411.233C331.598 414.581 334.843 417.973 338.088 421.365L339.273 422.603C340.71 424.105 342.105 425.646 343.499 427.187C343.626 427.327 343.714 427.687 343.629 427.799C343.346 428.171 342.857 428.815 342.661 428.747C342.015 428.519 341.429 428.093 340.86 427.679L340.86 427.679L340.757 427.604C339.899 426.982 339.048 426.351 338.196 425.721C337.419 425.146 336.643 424.571 335.862 424.002C335.85 423.994 335.77 424.079 335.689 424.166ZM708.623 525.063C708.253 525.077 707.862 525.133 707.471 525.188C706.61 525.31 705.748 525.433 705.105 525.117C705.066 525.097 704.96 525.044 704.789 524.958L704.747 524.937L704.739 524.933C698.285 521.677 611.292 477.789 522.548 450.785C445.621 427.377 364.824 420.75 361.368 420.466L361.269 420.458C360.9 420.427 443.376 418.383 523.762 442.489C616.176 470.202 708.237 524.598 708.623 525.063ZM420.311 371.583L420.311 371.581C420.409 370.675 420.508 369.758 420.62 368.829C420.559 368.583 420.502 368.343 420.445 368.107C420.184 367.016 419.948 366.031 419.579 365.098C419.544 365.011 419.51 364.924 419.477 364.837L419.428 364.71C418.862 363.248 418.296 361.783 416.397 361.327C415.979 361.227 415.622 360.905 415.259 360.579C414.961 360.31 414.658 360.037 414.315 359.883C413.311 359.43 412.218 359.116 411.132 358.925C410.583 358.828 410.02 358.814 409.456 358.8C408.901 358.787 408.346 358.773 407.805 358.68C406.834 358.514 405.868 358.306 404.903 358.097C403.418 357.777 401.935 357.456 400.433 357.291C399.855 357.228 399.278 357.173 398.701 357.119L398.699 357.118C397.087 356.966 395.479 356.814 393.872 356.473C392.384 356.158 390.836 356.114 389.292 356.07H389.292H389.291H389.291H389.29C388.797 356.056 388.304 356.042 387.814 356.019C387.589 356.008 387.357 356.083 387.126 356.157C386.871 356.239 386.617 356.32 386.378 356.284C384.674 356.027 382.978 355.717 381.282 355.408C380.849 355.329 380.416 355.25 379.984 355.172C379.229 355.035 378.479 355.047 377.72 355.059C376.872 355.072 376.014 355.085 375.126 354.893C373.601 354.562 372.013 354.55 370.412 354.538C369.335 354.53 368.253 354.522 367.18 354.417C364.966 354.199 362.725 354.251 360.484 354.303C359.567 354.324 358.651 354.345 357.737 354.348C356.385 354.353 354.705 355.909 354.609 357.233C354.581 357.608 354.602 358.018 354.623 358.428V358.429V358.429V358.429V358.43V358.43V358.431V358.431V358.432V358.432V358.432V358.433V358.433V358.434V358.434V358.434V358.435V358.435C354.667 359.301 354.71 360.163 354.306 360.675C353.283 361.969 353.422 363.361 353.562 364.759C353.677 365.905 353.792 367.056 353.266 368.16C352.745 369.254 352.811 370.568 352.877 371.881C352.909 372.522 352.941 373.163 352.905 373.778C352.844 374.813 352.751 375.847 352.658 376.883C352.476 378.91 352.294 380.94 352.352 382.977C352.36 383.253 352.433 383.532 352.505 383.809L352.505 383.809C352.596 384.158 352.686 384.504 352.645 384.838C352.469 386.264 352.254 387.686 352.039 389.107L352.038 389.108C351.859 390.295 351.679 391.482 351.522 392.672C351.408 393.529 351.414 394.385 351.419 395.246V395.247C351.426 396.35 351.433 397.461 351.19 398.589C350.909 399.898 350.904 401.252 350.898 402.619C350.893 403.65 350.889 404.688 350.766 405.719C350.608 407.045 350.634 408.383 350.661 409.726V409.727C350.696 411.538 350.731 413.359 350.316 415.17C350.06 416.291 349.992 417.453 349.923 418.617C349.879 419.363 349.836 420.11 349.742 420.847C349.707 421.12 349.534 421.425 349.373 421.708L349.372 421.708C349.18 422.046 349.006 422.352 349.107 422.533C349.429 423.107 350.188 423.548 350.856 423.795C352.675 424.468 355.125 423.583 355.228 422.291C355.274 421.714 355.341 421.133 355.407 420.552L355.407 420.55L355.408 420.548C355.582 419.026 355.756 417.502 355.57 416.025C355.396 414.649 355.709 413.373 356.02 412.104L356.02 412.104C356.284 411.029 356.547 409.959 356.51 408.838C356.499 408.495 356.916 407.839 357.156 407.829C360.261 407.697 363.37 407.62 366.479 407.602C367.587 407.596 368.695 407.628 369.803 407.659C371.02 407.694 372.238 407.729 373.455 407.714C374.732 407.697 376.009 407.643 377.287 407.589C379.348 407.501 381.409 407.414 383.466 407.486C384.757 407.531 386.039 407.792 387.322 408.053C388.217 408.236 389.112 408.418 390.013 408.528C390.571 408.596 391.132 408.608 391.693 408.621C392.605 408.642 393.522 408.663 394.439 408.92C394.978 409.072 395.563 409.053 396.15 409.034C396.694 409.017 397.24 409 397.752 409.118C398.59 409.312 399.404 409.607 400.219 409.903L400.22 409.903C400.919 410.156 401.618 410.41 402.334 410.6C403.151 410.816 403.996 410.929 404.841 411.043C405.267 411.1 405.692 411.157 406.115 411.227C406.49 411.289 406.883 411.4 407.275 411.511C408.124 411.75 408.97 411.988 409.628 411.734C410.925 411.234 412.196 410.11 412.952 408.92C413.72 407.711 414.033 406.169 414.329 404.712L414.373 404.495C414.464 404.051 414.415 403.554 414.368 403.067C414.305 402.43 414.244 401.808 414.499 401.34C415.27 399.922 415.473 398.412 415.675 396.905C415.774 396.164 415.874 395.425 416.04 394.698C416.12 394.351 416.078 393.943 416.038 393.548C415.985 393.025 415.934 392.524 416.168 392.213C417.215 390.823 417.366 389.237 417.516 387.65L417.516 387.649C417.611 386.649 417.706 385.649 418.025 384.696C418.465 383.382 418.717 381.966 418.97 380.551L418.97 380.55C419.079 379.935 419.189 379.321 419.314 378.716C419.792 376.395 420.047 374.029 420.311 371.584L420.311 371.583ZM412.717 396.27C412.436 397.712 412.156 399.147 411.516 400.486C411.483 400.789 411.462 401.068 411.442 401.326L411.442 401.328V401.328C411.39 402.021 411.349 402.56 411.12 403.002C410.764 403.691 410.718 404.489 410.672 405.285C410.596 406.585 410.52 407.879 409.099 408.681C409.038 408.716 408.975 408.752 408.911 408.789C408.458 409.051 407.936 409.354 407.534 409.265C407.125 409.174 406.741 408.96 406.359 408.745C405.957 408.521 405.557 408.296 405.129 408.216C404.373 408.075 403.601 408.015 402.83 407.955C401.945 407.887 401.061 407.818 400.204 407.626C399.473 407.463 398.771 407.169 398.069 406.876C397.355 406.577 396.641 406.278 395.897 406.117C394.949 405.912 393.973 405.84 392.996 405.769C392.236 405.713 391.475 405.658 390.726 405.539C384.31 404.521 377.869 404.674 371.427 404.827C367.567 404.919 363.707 405.011 359.852 404.85C358.517 404.795 357.395 404.722 357.298 403.016C357.263 402.404 357.153 401.762 357.043 401.123C356.818 399.805 356.593 398.495 357.027 397.455C357.943 395.262 357.834 393.096 357.726 390.939C357.681 390.034 357.636 389.13 357.666 388.227C357.956 379.719 358.032 371.203 358.099 362.689C358.1 362.565 358.1 362.441 358.1 362.318V362.317C358.103 360.924 358.106 359.633 359.132 358.472C359.723 357.805 360.244 357.556 361.157 357.622C362.23 357.699 363.307 357.714 364.385 357.729C365.606 357.746 366.827 357.763 368.04 357.871C369.256 357.979 370.466 358.169 371.675 358.358C372.948 358.558 374.22 358.758 375.501 358.862C376.323 358.929 377.175 358.869 378.022 358.809H378.022H378.022H378.023H378.023H378.023H378.023H378.024H378.024H378.024H378.025H378.025H378.025H378.025H378.026H378.026H378.026H378.026H378.027C379.343 358.716 380.647 358.625 381.805 359.01C384.148 359.79 386.513 359.846 388.872 359.903C390.096 359.932 391.317 359.962 392.534 360.092C393.479 360.192 394.473 360.117 395.458 360.043C396.94 359.93 398.401 359.82 399.644 360.312C401.689 361.124 403.731 361.139 405.745 361.154C406.543 361.16 407.337 361.166 408.124 361.221C411.444 361.455 414.327 362.402 416.167 364.833C417.236 366.245 418.266 368.582 416.92 370.777C416.803 370.969 416.833 371.248 416.865 371.532C416.882 371.692 416.9 371.853 416.892 372.002C416.852 372.707 416.86 373.43 416.868 374.154C416.886 375.815 416.904 377.477 416.346 378.915C415.81 380.295 415.554 381.712 415.298 383.125L415.298 383.126C415.084 384.311 414.87 385.493 414.492 386.648C414.228 387.454 414.233 388.362 414.239 389.263C414.245 390.282 414.252 391.292 413.868 392.137C413.264 393.469 412.99 394.873 412.717 396.27ZM353.319 405.195C353.264 405.14 353.208 405.084 353.167 405.038C353.933 405.115 354.799 405.272 354.982 405.712C355.182 406.192 355.152 406.767 355.123 407.343C355.11 407.587 355.098 407.831 355.103 408.068C355.045 408.069 354.98 408.077 354.914 408.086C354.771 408.104 354.627 408.122 354.564 408.059C354.475 407.971 354.412 407.837 354.351 407.707L354.351 407.707C354.273 407.541 354.198 407.382 354.076 407.339C352.648 406.828 352.61 406.735 353.542 405.457C353.558 405.436 353.438 405.315 353.319 405.195L353.319 405.195ZM510.59 561.525L510.591 561.526C511.087 561.779 511.577 562.03 512.07 562.274C512.44 562.458 512.828 562.613 513.214 562.768L513.215 562.769C513.853 563.024 514.488 563.279 515.037 563.66C515.717 564.129 516.287 564.761 516.854 565.39L516.939 565.485L517.003 565.555L517.08 565.64C517.123 565.688 517.167 565.735 517.211 565.783C517.248 565.823 517.285 565.863 517.322 565.903L517.392 565.977C517.474 566.068 517.417 566.482 517.35 566.503C517.189 566.552 517.019 566.617 516.847 566.683C516.374 566.864 515.886 567.05 515.525 566.917C514.93 566.694 514.318 566.514 513.705 566.334C511.885 565.801 510.066 565.267 508.71 563.598C507.609 562.241 506.086 561.115 504.543 560.271C503.847 559.894 502.577 560.449 502.291 561.603C501.569 564.513 493.658 576.054 481.815 576.054C469.973 576.054 451.341 574.834 446.388 568.888C439.429 560.532 442.11 544.576 442.368 543.041L442.382 542.957C442.465 542.435 442.08 541.777 441.753 541.289C441.653 541.14 440.947 541.227 440.649 541.413C439.736 541.99 438.848 542.604 437.96 543.218L437.96 543.219L437.959 543.219L437.959 543.219L437.959 543.219L437.95 543.225L437.908 543.254C437.774 543.347 437.64 543.439 437.506 543.532C437.296 543.677 437.085 543.822 436.873 543.966C436.662 544.11 436.451 544.255 436.241 544.401L436.118 544.487L435.947 544.606L435.661 544.806L435.649 544.815C434.544 545.589 433.438 546.364 432.262 547.008C431.902 547.206 431.307 547.012 430.752 546.832L430.752 546.832C430.587 546.778 430.425 546.726 430.274 546.685C429.959 546.597 429.662 546.444 429.365 546.291C429.23 546.222 429.096 546.152 428.959 546.089C429.202 545.873 429.438 545.647 429.674 545.422L429.674 545.422L429.675 545.421L429.675 545.421L429.675 545.421L429.676 545.42L429.676 545.42C430.199 544.92 430.722 544.42 431.315 544.024C432.119 543.49 432.962 543.013 433.805 542.536L433.806 542.535C434.42 542.188 435.034 541.84 435.633 541.471C437.185 540.511 438.714 539.509 440.225 538.487C440.408 538.363 440.594 538.241 440.781 538.119L440.782 538.118L440.783 538.118L440.783 538.117C441.556 537.61 442.338 537.097 442.941 536.431C445.503 533.6 448.383 531.2 451.371 528.812C452.76 527.705 454.282 526.946 455.796 526.19C456.858 525.661 457.917 525.133 458.923 524.488C459.63 524.037 460.524 523.887 461.422 523.736L461.422 523.736C461.916 523.653 462.412 523.57 462.879 523.437C463.781 523.178 464.675 522.892 465.569 522.606L465.569 522.606C466.233 522.393 466.897 522.181 467.563 521.98C467.753 521.924 467.964 521.931 468.171 521.938C468.24 521.94 468.308 521.943 468.375 521.943C469.199 521.943 470.025 521.921 470.852 521.898C472.794 521.846 474.734 521.795 476.639 522.03C477.832 522.178 478.973 522.736 480.114 523.295L480.116 523.296C480.628 523.547 481.14 523.798 481.658 524.012C481.631 524.057 481.606 524.114 481.582 524.17C481.534 524.281 481.486 524.391 481.414 524.413C478.666 525.175 475.985 525.626 473.171 524.331C472.302 523.931 471.14 524.076 470.053 524.213C469.836 524.24 469.622 524.267 469.413 524.289C468.4 524.397 467.4 524.646 466.405 524.894C466.181 524.949 465.958 525.005 465.734 525.059C465.603 525.09 465.471 525.121 465.338 525.15C465.262 525.167 465.185 525.184 465.109 525.201C464.339 525.373 463.563 525.545 462.867 525.874C460.351 527.058 457.859 528.311 455.41 529.636C454.598 530.074 453.822 530.575 453.046 531.075L453.046 531.076L453.046 531.076L453.045 531.076L453.045 531.076L453.045 531.076L453.044 531.077L453.044 531.077L453.044 531.077L453.044 531.077L453.043 531.077L453.043 531.077L453.043 531.078L453.042 531.078L453.042 531.078C452.339 531.532 451.636 531.985 450.907 532.392C450.505 532.616 450.071 532.791 449.638 532.966L449.637 532.966C448.514 533.419 447.394 533.87 446.848 535.181C446.805 535.281 446.676 535.348 446.549 535.414C446.521 535.428 446.493 535.442 446.467 535.457C446.439 535.472 446.413 535.488 446.388 535.504C446.675 535.511 446.967 535.539 447.259 535.567C447.914 535.63 448.568 535.693 449.161 535.524C450.161 535.244 451.112 534.788 452.063 534.332C452.177 534.278 452.292 534.223 452.406 534.169L452.511 534.119C452.686 534.036 452.862 533.953 453.038 533.873C453.51 533.659 453.976 533.428 454.441 533.197C455.345 532.749 456.248 532.3 457.193 531.978C457.754 531.787 458.362 531.75 458.974 531.713H458.974C459.41 531.686 459.848 531.659 460.272 531.577C461.061 531.425 461.841 531.216 462.621 531.006L462.621 531.006L462.622 531.006L462.622 531.005L462.623 531.005L462.623 531.005C463.017 530.899 463.411 530.794 463.806 530.695C463.996 530.65 464.203 530.637 464.402 530.637C465.246 530.636 466.101 530.679 466.956 530.721C469.002 530.823 471.047 530.925 472.935 530.426C473.698 530.226 474.382 530.291 475.053 530.355C475.601 530.407 476.141 530.459 476.709 530.364C477.799 530.183 479.035 530.689 480.214 531.172L480.421 531.257C480.501 531.289 480.579 531.321 480.658 531.353C480.732 531.382 480.807 531.412 480.88 531.441C480.93 531.46 480.98 531.479 481.029 531.498C482.32 531.986 483.678 532.512 484.741 533.352C485.989 534.344 487.131 535.467 488.272 536.589L488.273 536.59C488.755 537.064 489.237 537.539 489.728 538.003C489.636 538.099 489.532 538.226 489.427 538.353C489.203 538.626 488.978 538.899 488.879 538.86C488.404 538.67 458.94 534.992 447.431 541.289C443.256 543.573 447.098 560.163 447.419 561.551L447.431 561.603C449.161 569.11 476.133 573.437 486.395 571.721C498.749 569.656 499.49 556.742 499.73 552.555C499.772 551.82 499.799 551.354 499.87 551.262C500.533 550.414 501.588 549.958 502.527 550.745C502.974 551.117 503.272 551.841 503.347 552.437C503.416 553.002 503.593 553.539 503.764 554.061L503.765 554.062C503.901 554.477 504.035 554.883 504.108 555.284C504.337 556.552 505.154 557.348 505.978 558.151C506.555 558.713 507.137 559.279 507.522 560.014C508.616 560.516 509.615 561.027 510.59 561.525ZM207.763 482.701L207.763 482.701C207.376 482.614 206.99 482.527 206.732 482.671C205.832 483.173 167.57 500.293 140.855 485.647C140.528 485.467 140.057 485.224 139.494 484.933C136.15 483.204 129.524 479.778 129.921 477.838C131.002 472.552 146.121 465.29 148.087 464.345C148.215 464.284 148.287 464.25 148.296 464.244C148.211 464.11 148.134 463.95 148.056 463.79C147.885 463.437 147.714 463.084 147.46 463.008C146.73 462.792 145.877 462.764 145.123 462.907C144.242 463.075 134.654 465.212 132.974 466.277C131.208 467.397 126.376 473.286 126.464 475.185C126.503 475.997 126.232 476.821 125.96 477.65C125.818 478.084 125.675 478.519 125.575 478.955C125.517 479.21 125.506 479.488 125.495 479.763C125.477 480.2 125.459 480.63 125.256 480.95C125.035 481.299 124.774 481.859 124.457 482.538C123.836 483.873 123 485.665 121.833 487.214C120.958 488.375 119.768 489.351 118.864 490.094L118.864 490.094L118.863 490.095C118.323 490.538 117.885 490.897 117.676 491.163C117.551 491.322 117.386 491.482 117.216 491.646C116.749 492.098 116.254 492.577 116.494 493.149C116.818 493.923 117.96 493.544 118.573 493.34L118.586 493.335C119.48 493.042 120.33 492.47 121.06 491.854C122.083 490.989 123.047 490.033 123.909 489.011C124.793 487.96 125.655 486.851 126.287 485.647C126.984 484.31 128.526 483.756 129.921 484.715C169.15 511.691 206.166 485.978 207.895 484.442C208.132 484.233 208.174 483.804 208.216 483.373C208.235 483.175 208.255 482.977 208.293 482.799C208.125 482.782 207.944 482.742 207.763 482.701ZM384.928 331.068C384.155 331.843 383.385 332.604 382.62 333.358L382.62 333.359C380.697 335.257 378.812 337.117 377.032 339.073C376.406 339.76 376.015 340.664 375.625 341.566C375.457 341.955 375.288 342.344 375.101 342.716C374.093 344.716 372.605 345.466 369.988 346.601C368.475 347.258 366.891 347.885 365.492 347.611C364.51 347.418 363.523 347.433 362.551 347.448C361.473 347.464 360.413 347.48 359.395 347.213C358.156 346.888 356.799 345.823 356.174 344.709C355.634 343.744 356.239 342.491 357.317 341.454C358.507 340.31 359.532 338.997 360.558 337.682L360.558 337.682C361.151 336.922 361.744 336.162 362.369 335.434C363.038 334.656 363.7 333.872 364.363 333.088L364.368 333.083C366.563 330.487 368.759 327.889 371.161 325.499C373.146 323.523 375.616 322.25 378.527 321.432C381.175 320.687 383.199 320.87 385.567 321.884C386.45 322.261 387.469 322.315 388.49 322.369L388.491 322.369C388.989 322.395 389.488 322.421 389.972 322.485C391.516 322.689 392.43 324.144 391.436 324.851C390.558 325.477 388.918 326.093 388.184 325.686C384.152 323.451 380.133 323.979 376.185 325.48C375.133 325.88 374.261 326.795 373.406 327.694C373.132 327.981 372.86 328.266 372.585 328.533C370.472 330.575 368.366 332.63 366.361 334.777C365.586 335.608 364.921 336.545 364.258 337.48C364.012 337.827 363.766 338.173 363.515 338.514C363.348 338.74 363.181 338.966 363.013 339.192C362.168 340.333 361.322 341.475 360.535 342.656C359.95 343.534 360.026 343.7 360.942 343.992C363.226 344.72 365.456 344.577 367.727 343.751C370.5 342.742 372.096 340.627 373.752 338.431L373.756 338.425C373.957 338.159 374.16 337.891 374.365 337.624C375.716 335.864 377.355 334.326 378.994 332.788L378.994 332.788L378.994 332.788C379.709 332.117 380.424 331.447 381.115 330.758C381.236 330.637 381.36 330.52 381.485 330.402C381.707 330.193 381.928 329.984 382.131 329.757C383.136 328.628 384.15 327.542 385.859 327.633C385.938 327.637 386.015 327.54 386.098 327.435C386.162 327.355 386.229 327.271 386.302 327.224C386.41 327.155 386.541 327.119 386.671 327.083L386.671 327.083C386.728 327.067 386.785 327.051 386.841 327.033C386.832 327.09 386.828 327.149 386.824 327.209L386.824 327.21C386.815 327.34 386.806 327.469 386.753 327.577C386.189 328.711 385.607 329.836 384.928 331.068ZM400.135 314.993C402.983 312.301 405.85 309.59 407.791 305.928C407.323 305.772 406.851 305.736 406.383 305.701C406.162 305.684 405.942 305.668 405.724 305.638C405.36 305.59 404.993 305.498 404.628 305.406C403.988 305.245 403.353 305.086 402.745 305.164C401.618 305.308 400.454 305.77 399.476 306.37C398.042 307.252 396.516 307.952 394.987 308.655C392.731 309.69 390.469 310.729 388.485 312.355C387.94 312.801 387.672 313.3 387.417 313.776C387.211 314.159 387.013 314.527 386.686 314.841C386.849 314.873 387.012 314.902 387.175 314.932L387.176 314.932C387.538 314.998 387.9 315.064 388.254 315.158C389.098 315.383 389.94 315.616 390.781 315.85C391.498 316.049 392.214 316.248 392.931 316.441C393.124 316.493 393.317 316.548 393.51 316.604C394.129 316.781 394.748 316.959 395.379 317.027C395.549 317.045 395.734 317.071 395.924 317.097C396.752 317.212 397.695 317.342 398.079 316.964C398.754 316.3 399.444 315.647 400.135 314.993ZM400.256 309.002C400.286 309.014 400.315 309.024 400.342 309.032C400.807 308.687 401.483 308.597 401.684 308.864C401.951 309.219 402.084 310.143 401.866 310.32C400.454 311.468 398.983 312.565 397.42 313.491C396.82 313.845 395.923 313.791 395.173 313.741C394.94 313.725 394.491 313.004 394.581 312.789C394.616 312.705 394.653 312.615 394.691 312.522L394.692 312.52L394.694 312.514C395.001 311.764 395.397 310.793 395.859 310.734C397.289 310.549 398.354 309.832 399.449 309.095C399.555 309.023 399.662 308.951 399.77 308.879C399.844 308.83 399.993 308.893 400.143 308.956L400.196 308.978C400.216 308.986 400.236 308.994 400.256 309.002ZM466.45 446.317C462.016 445.791 457.633 445.79 453.263 445.79H453.259C451.913 445.79 450.568 445.79 449.223 445.774C448.395 445.765 447.452 445.596 446.786 445.161C446.388 444.905 446.235 443.939 446.347 443.368C446.421 443.004 447.187 442.522 447.634 442.53C448.495 442.547 449.948 442.479 451.699 442.396C455.861 442.199 461.703 441.923 465.248 442.53C473.386 443.925 477.603 449.121 477.359 449.099C476.982 449.065 476.599 449.049 476.216 449.032C475.241 448.989 474.262 448.947 473.386 448.629C472.712 448.384 472.056 448.089 471.397 447.794C469.85 447.099 468.287 446.398 466.45 446.317ZM420.062 299.687C421.638 299.06 421.701 298.128 420.206 297.238C419.779 297.355 419.401 297.489 419.045 297.615C418.633 297.76 418.251 297.895 417.858 297.982C417.007 298.172 416.151 298.342 415.295 298.511L415.294 298.511C413.995 298.769 412.696 299.027 411.414 299.353C410.957 299.469 410.294 300.227 410.35 300.594C410.448 301.237 410.879 301.844 411.284 302.414C411.327 302.474 411.37 302.534 411.412 302.594C411.487 302.7 412.033 302.539 412.325 302.416C412.694 302.259 413.057 302.085 413.419 301.911C414.004 301.629 414.59 301.348 415.201 301.143C415.881 300.915 416.576 300.731 417.271 300.546C418.216 300.296 419.16 300.046 420.062 299.687ZM424.758 294.755C424.781 293.435 424.789 293.433 426.693 293.109L426.89 293.076C427.293 293.007 427.678 292.84 428.064 292.672C428.382 292.533 428.701 292.395 429.031 292.311C429.199 292.268 429.724 292.777 429.684 292.914C429.659 292.999 429.633 293.091 429.606 293.187C429.432 293.811 429.211 294.604 428.875 294.674C428.502 294.752 428.129 294.94 427.755 295.13C426.792 295.618 425.813 296.114 424.758 294.755ZM435.785 289.73C435.94 289.713 436.094 289.695 436.241 289.686C437.389 289.478 437.421 288.761 437.451 288.068C437.464 287.761 437.477 287.459 437.586 287.208C437.418 287.238 437.246 287.262 437.075 287.286L437.075 287.286L437.074 287.286L437.074 287.286L437.074 287.286C436.687 287.339 436.3 287.392 435.944 287.527C435.869 287.556 435.789 287.585 435.706 287.615C435.141 287.822 434.449 288.075 434.34 288.452C433.909 289.941 434.858 289.835 435.785 289.73ZM448.9 284.795L448.831 284.827C448.488 284.983 448.193 285.118 447.936 285.064C447.573 284.987 447.228 284.821 446.882 284.654C446.736 284.584 446.59 284.513 446.442 284.45C446.527 284.425 446.612 284.4 446.696 284.374C446.81 284.339 446.924 284.304 447.038 284.268L447.042 284.267L447.043 284.267L447.043 284.267L447.044 284.267C447.503 284.124 447.963 283.98 448.433 283.886C449.124 283.747 449.285 283.943 449.07 284.72C449.012 284.745 448.955 284.77 448.9 284.795ZM517.579 229.066L517.579 229.067C517.671 229.436 517.764 229.814 517.868 230.199C517.978 230.574 518.103 230.883 518.217 231.167C518.312 231.403 518.4 231.621 518.468 231.845C519.287 234.556 519.622 237.322 519.56 240.163C519.546 240.783 519.695 241.403 519.844 242.026C519.958 242.5 520.072 242.975 520.115 243.453C520.168 244.044 520.155 244.655 520.143 245.263C520.12 246.347 520.097 247.422 520.45 248.364C521.003 249.849 520.872 251.28 520.745 252.671C520.721 252.936 520.697 253.2 520.677 253.462C520.508 255.717 519.639 257.671 517.255 258.932C516.572 259.294 515.89 259.393 515.217 259.49C514.618 259.577 514.027 259.663 513.448 259.932C512.659 260.299 511.803 260.425 510.933 260.554C509.829 260.717 508.702 260.883 507.663 261.55C507.052 261.943 506.238 262.014 505.421 262.084C504.633 262.152 503.842 262.22 503.227 262.578C501.832 263.387 500.855 263.309 499.722 262.472C499.203 262.089 498.693 261.693 498.182 261.297L498.182 261.296C497.712 260.931 497.241 260.565 496.763 260.21C496.204 259.793 495.629 259.394 495.033 259.034C494.4 258.651 493.632 258.444 492.909 258.25C492.228 258.067 491.587 257.894 491.139 257.595C489.901 256.771 488.904 257.084 487.931 257.389C487.473 257.533 487.02 257.675 486.55 257.696C486.171 257.712 485.816 258.287 485.461 258.86C485.301 259.12 485.14 259.38 484.977 259.588C485.228 259.716 485.491 259.89 485.754 260.064C486.335 260.449 486.916 260.834 487.369 260.718C487.505 260.684 487.638 260.648 487.769 260.612C488.79 260.337 489.676 260.098 490.729 260.79C491.204 261.103 491.747 261.309 492.292 261.515C492.778 261.699 493.265 261.884 493.705 262.145C493.856 262.235 494.008 262.324 494.16 262.414C495.366 263.123 496.601 263.848 497.545 264.83C499.014 266.353 500.599 266.912 502.709 266.28C504.184 265.838 505.673 265.446 507.164 265.054C508.313 264.752 509.463 264.45 510.605 264.125C511.218 263.95 511.835 263.79 512.451 263.631C515.078 262.951 517.691 262.274 519.957 260.454C523.425 257.665 523.537 253.884 523.115 250.181C523.039 249.523 522.951 248.864 522.863 248.204L522.862 248.201L522.862 248.197C522.667 246.738 522.471 245.273 522.403 243.789C522.35 242.608 522.381 241.422 522.412 240.235V240.234V240.234V240.234V240.234V240.233V240.233V240.233V240.233V240.232C522.49 237.292 522.568 234.35 521.356 231.492C521.002 230.655 520.803 229.753 520.603 228.85C520.411 227.98 520.218 227.11 519.887 226.297C519.287 224.814 518.348 223.442 517.408 222.131L517.294 221.972C516.669 221.097 515.876 219.989 515.054 219.888C514.341 219.801 513.566 220.23 512.79 220.66L512.79 220.66C512.453 220.846 512.116 221.033 511.784 221.177C511.957 221.291 512.131 221.405 512.304 221.519L512.305 221.519L512.306 221.52C512.718 221.789 513.13 222.059 513.535 222.341C513.754 222.496 513.965 222.681 514.139 222.887C514.377 223.168 514.632 223.442 514.886 223.715L514.886 223.715L514.886 223.716C515.506 224.382 516.127 225.049 516.523 225.83C517.02 226.805 517.289 227.895 517.579 229.066ZM483.434 268.822L483.417 268.788C483.277 268.727 483.136 268.715 483.039 268.707C482.97 268.701 482.923 268.697 482.916 268.678C482.767 268.263 482.64 267.841 482.512 267.418L482.512 267.417C482.48 267.312 482.448 267.206 482.416 267.101C482.358 267.291 482.281 267.483 482.205 267.675C482.036 268.1 481.867 268.526 481.898 268.936C482.109 271.754 482.366 274.479 483.748 277.155C484.37 278.36 484.609 279.751 484.85 281.15C485.053 282.332 485.257 283.518 485.693 284.601C485.749 284.741 485.806 284.881 485.862 285.022L485.862 285.022C486.655 286.996 487.442 288.953 487.828 291.038C487.973 291.82 487.803 292.738 487.53 293.504C487.211 294.398 486.566 295.115 485.92 295.834C484.944 296.92 483.965 298.01 484.091 299.722C484.103 299.877 483.958 300.043 483.813 300.208C483.776 300.252 483.738 300.295 483.702 300.339C483.674 300.374 483.647 300.409 483.624 300.444C483.724 300.406 483.828 300.374 483.932 300.342C484.173 300.267 484.414 300.192 484.605 300.051C484.721 299.967 484.791 299.823 484.861 299.678C484.928 299.541 484.994 299.403 485.101 299.318C485.408 299.074 485.717 298.839 486.024 298.605L486.025 298.604C487.857 297.207 489.617 295.865 490.44 293.241C491.16 290.947 490.911 289.159 490.113 287.261C489.66 286.19 489.109 285.144 488.559 284.101C487.575 282.233 486.595 280.373 486.194 278.389C485.664 275.76 485.047 273.189 484.245 270.645C484.057 270.054 483.774 269.494 483.434 268.822ZM540.704 355.05L540.703 355.05L540.702 355.049C540.282 354.951 539.87 354.855 539.457 354.763C539.194 354.704 538.932 354.644 538.67 354.585L538.669 354.584C537.596 354.34 536.522 354.095 535.434 353.933C534.846 353.845 534.247 353.827 533.647 353.809C533.205 353.796 532.762 353.783 532.322 353.742C531.66 353.68 530.961 353.611 530.365 353.353C529.833 353.125 529.343 352.801 528.854 352.477C528.78 352.429 528.706 352.38 528.632 352.331C528.574 352.293 528.516 352.255 528.457 352.217C528.378 352.166 528.298 352.116 528.217 352.066C528.344 352.061 528.47 352.056 528.597 352.053C528.748 352.048 528.899 352.044 529.05 352.04C529.698 352.023 530.346 352.006 530.986 351.931C531.301 351.895 531.613 351.802 531.925 351.71C532.337 351.587 532.748 351.466 533.158 351.476L533.596 351.486C536.38 351.554 539.171 351.622 541.94 351.9C543.736 352.081 545.516 352.464 547.291 352.846C547.712 352.936 548.132 353.027 548.552 353.114C550.111 353.439 551.656 353.829 553.2 354.218L553.721 354.349C555.095 354.695 556.46 355.064 557.827 355.434L557.832 355.435L558.406 355.59C558.603 355.643 558.793 355.719 558.983 355.795C559.072 355.83 559.16 355.865 559.25 355.898C559.18 355.995 559.109 356.119 559.039 356.243L559.038 356.243C558.884 356.515 558.729 356.787 558.575 356.786C557.839 356.781 557.103 356.915 556.365 357.048C554.827 357.327 553.283 357.606 551.722 356.636C551.444 356.463 551.122 356.498 550.756 356.538C550.289 356.589 549.749 356.648 549.128 356.297C548.025 355.676 546.581 355.664 545.066 355.651C544.42 355.645 543.761 355.64 543.111 355.587C542.242 355.41 541.459 355.226 540.704 355.05ZM216.56 425.715C239.935 422.778 259.425 420.329 259.376 419.695C259.373 419.656 259.405 419.551 259.452 419.398C259.754 418.41 260.668 415.417 256.636 415.366C239.334 415.147 189.101 421.039 141.895 431.158C74.9168 444.892 36.3292 464.031 36.7872 465.334C36.9955 465.926 53.6499 461.041 74.0897 455.046L74.0902 455.046C98.6178 447.852 128.596 439.06 142.149 436.213L143.658 435.9C156.583 433.251 189.227 429.15 216.56 425.715ZM159.531 467.148C163.78 467.148 169.913 467.61 177.76 470.271L179.73 470.945C181.23 471.463 184.018 472.227 188.058 473.225C188.996 473.457 189.569 474.406 189.337 475.344C189.105 476.282 177.138 473.756 177.138 473.756C169.048 470.998 165.819 470.244 162.038 470.41C158.357 470.572 150.58 473.429 144.673 475.599L144.673 475.599C140.502 477.131 137.264 478.32 137.061 477.976C136.568 477.144 137.151 476.089 137.675 475.579C142.976 470.41 145.913 468.952 159.531 467.148ZM448.274 437.065C448.56 436.814 448.778 436.479 448.885 436.084C449.175 435.018 440.922 433.416 435.365 435.493C434.237 435.915 433.238 436.57 432.144 437.525C431.96 437.686 431.554 438.245 431.051 438.937C430.226 440.073 429.141 441.567 428.351 442.246C427.08 443.339 424.923 444.503 423.444 445.248C422.844 445.55 420.568 446.054 418.002 446.622C413.89 447.532 409.036 448.606 409.146 449.278C409.325 450.368 411.332 450.203 412.422 450.024C414.316 449.714 415.951 449.476 417.373 449.269L417.376 449.269L417.378 449.269L417.378 449.269L417.378 449.269C421.02 448.739 423.269 448.413 424.915 447.584C426.703 446.683 428.248 445.621 429.753 444.326C429.992 444.121 430.33 443.811 430.709 443.456L431.917 442.308C431.728 443.844 432.243 445.322 433.543 446.37L434.037 446.765C449.532 459.017 466.292 460.871 483.979 452.312L484.255 452.177L484.385 452.88C484.844 455.215 485.501 457.159 486.369 458.719C487.656 461.029 489.851 463.297 492.941 465.564L495.308 462.339L494.914 462.047C492.465 460.198 490.786 458.428 489.864 456.773C488.887 455.019 488.199 452.388 487.844 448.899L487.54 445.909L484.899 447.344L484.374 447.626C467.067 456.833 451.092 455.383 436.054 443.257C435.966 443.185 435.875 441.98 436.054 441.458C436.368 440.541 437.086 438.709 438.929 438.075C440.131 437.662 448.274 437.065 448.274 437.065ZM573.407 331.819L572.575 330.314C571.949 329.193 571.138 327.755 570.737 327.094L570.606 326.885C568.973 324.355 568.675 321.15 569.094 315.96L569.268 314.042L569.428 312.372C569.899 307.231 569.78 305.271 568.839 304.259L568.696 304.112C567.759 303.208 566.664 303.22 562.711 304.098L561.746 304.316C557.179 305.363 554.159 305.617 550.668 304.787L547.649 304.037C547.243 303.937 546.839 303.839 546.467 303.748C546.132 303.666 545.823 303.591 545.563 303.527C545.147 303.426 544.856 303.355 544.784 303.337L543.967 303.128C536.768 301.242 533.738 299.216 532.605 294.309C532.334 293.138 532.445 291.927 532.87 290.417L532.967 290.088C533.242 289.178 534.583 285.563 534.583 285.564C534.885 284.708 535.139 283.926 535.365 283.14L535.654 282.119C535.898 281.246 536.15 280.319 536.412 279.328L539.145 268.631C539.636 266.745 540.054 265.18 540.224 264.652L541.001 262.372L541.327 261.447C541.54 260.857 541.745 260.313 541.957 259.783C543.665 255.504 545.478 252.862 548.033 252.132C550.388 251.46 552.122 251.552 554.019 252.308C554.414 252.466 555.442 252.956 556.22 253.327C556.639 253.527 556.986 253.692 557.124 253.754C559.025 254.594 560.973 255.129 563.613 255.394L564.116 255.441C565.389 255.549 566.436 255.409 569.542 254.73L571.771 254.236C574.139 253.722 575.691 253.468 577.391 253.362C578.932 253.266 580.367 253.333 581.732 253.592C583.981 254.017 587.429 255.417 592.164 257.801C592.904 258.173 593.202 259.075 592.829 259.815C592.457 260.555 591.555 260.853 590.815 260.48L589.932 260.04C585.889 258.044 582.946 256.874 581.175 256.539C580.072 256.331 578.883 256.275 577.577 256.356C575.969 256.456 574.454 256.715 571.977 257.262L570.113 257.676C566.804 258.4 565.611 258.561 564.023 258.443L563.863 258.43C560.624 258.155 558.228 257.522 555.911 256.497L553.321 255.277C553.142 255.195 552.998 255.131 552.907 255.095C551.625 254.583 550.571 254.527 548.857 255.017C547.532 255.395 546.113 257.463 544.743 260.895C544.495 261.517 544.253 262.166 543.993 262.902L543.086 265.554C542.68 266.731 539.734 278.457 539.636 278.861L539.153 280.693C538.839 281.868 538.54 282.954 538.248 283.968C538.054 284.646 537.84 285.318 537.599 286.026L537.412 286.563C537.169 287.251 536.953 287.861 536.761 288.403C535.409 292.219 535.245 292.683 535.35 293.075C535.364 293.129 535.384 293.181 535.406 293.242C535.439 293.33 535.478 293.434 535.515 293.581L535.528 293.634C536.352 297.201 538.635 298.672 545.133 300.331L551.029 301.786C553.995 302.552 556.573 302.392 560.604 301.498L563.159 300.919C564.861 300.542 565.293 300.494 566.272 300.455C568.236 300.376 569.81 300.896 571.037 302.217C572.832 304.149 572.999 306.35 572.421 312.596L572.123 315.743L572.052 316.624C571.746 320.773 571.988 323.345 573.017 325.081L573.339 325.602C573.647 326.113 574.112 326.926 574.569 327.737L576.03 330.361L576.224 330.698C578.174 334.057 579.784 335.94 581.494 336.59L581.678 336.655C583.865 337.372 586.57 335.949 590.058 331.417L590.511 330.829C591.04 330.175 591.578 329.764 594.06 328.227L597.892 325.872L598.353 325.581C600.747 324.064 602.155 322.935 602.468 322.296C606.133 314.815 608.469 303.138 607.764 289.864C607.676 288.2 606.79 285.65 605.091 282.291L604.888 281.894L604.795 281.841C600.784 279.561 597.865 277.394 596.028 275.306L595.813 275.055C593.931 272.816 592.038 269.161 590.088 264.06C589.793 263.286 590.18 262.419 590.954 262.123C591.728 261.827 592.595 262.215 592.891 262.989C594.732 267.805 596.487 271.194 598.11 273.125C599.604 274.904 602.187 276.869 605.846 278.985L606.745 279.496L607.135 279.714L607.342 280.11C609.491 284.212 610.636 287.379 610.76 289.704C611.491 303.486 609.054 315.672 605.162 323.616C604.502 324.963 602.881 326.262 599.96 328.115L599.232 328.571L596.131 330.476C593.555 332.067 593.038 332.451 592.687 332.917C588.4 338.6 584.47 340.728 580.743 339.506C577.95 338.59 575.882 336.16 573.407 331.819ZM618.768 241.844C618.015 241.497 617.124 241.826 616.777 242.578C616.027 244.203 614.856 245.223 613.179 245.718C611.977 246.073 610.631 246.278 608.983 246.385C608.408 246.423 607.914 246.445 607.177 246.466L604.643 246.531C600.585 246.663 598.816 247.006 597.043 248.283C594.693 249.977 593.706 255.389 594.531 258.507L594.575 258.677C594.604 258.795 594.635 258.92 594.666 259.058L594.767 259.51C594.773 259.539 594.796 259.647 594.828 259.797C594.898 260.13 595.011 260.667 595.086 261.011L595.227 261.642C595.353 262.186 595.479 262.671 595.618 263.145C596.174 265.036 596.91 266.568 597.992 267.83C598.142 268.004 598.56 268.76 599.02 269.625L600.595 272.635C601.869 274.879 603.193 276.511 604.867 277.602C605.573 278.062 606.219 278.252 607.43 278.47L607.968 278.569C608.951 278.752 609.416 278.868 610.001 279.097L610.455 279.281C610.912 279.456 611.45 279.584 612.229 279.72L612.785 279.812C612.788 279.812 614.107 280.013 614.853 280.132L615.66 280.27C616.431 280.41 617.114 280.56 617.764 280.736C618.399 280.907 618.987 281.101 619.533 281.321L619.879 281.456C620.433 281.665 620.894 281.794 621.709 281.986L622.464 282.161C622.809 282.242 623.055 282.306 623.275 282.374L623.532 282.46C624.499 282.807 625.317 283.414 626.344 284.685C627.703 286.368 627.703 287.157 626.658 287.88C625.976 288.351 625.806 289.285 626.277 289.967C626.748 290.648 627.682 290.818 628.364 290.347C631.03 288.504 631.03 285.712 628.678 282.8C627.317 281.115 626.05 280.177 624.545 279.637C624.244 279.529 623.967 279.445 623.623 279.356L623.172 279.246L622.236 279.028C621.652 278.888 621.31 278.788 620.923 278.643L620.253 278.383C619.711 278.18 619.143 278.001 618.548 277.84C617.663 277.6 616.746 277.408 615.689 277.229L612.813 276.776C612.13 276.659 611.712 276.558 611.472 276.457C610.542 276.064 609.973 275.899 608.805 275.674L607.763 275.481C607.069 275.35 606.751 275.248 606.505 275.089C605.31 274.309 598.905 263.69 598.496 262.298C598.344 261.78 598.207 261.232 598.06 260.572L597.642 258.615C597.605 258.448 597.569 258.295 597.535 258.15L597.431 257.739C596.89 255.694 597.646 251.546 598.797 250.717C599.958 249.881 601.466 249.622 605.169 249.517L607.283 249.464C608.045 249.442 608.565 249.419 609.179 249.379L609.725 249.339C611.339 249.209 612.729 248.979 614.029 248.595C616.539 247.854 618.391 246.241 619.501 243.835C619.848 243.083 619.52 242.192 618.768 241.844Z" fill="#00160A"/>
<path fill-rule="evenodd" clip-rule="evenodd" d="M268.334 397.796C268.885 396.715 269.356 395.772 270.012 394.984C270.676 394.186 271.515 393.531 272.306 392.847C272.384 392.779 272.82 392.949 272.817 392.994C272.805 393.232 272.778 393.543 272.624 393.69C271.449 394.807 271.351 396.292 270.991 397.754C270.597 399.356 270.997 400.61 271.727 401.946C272.213 402.836 272.568 403.814 272.873 404.787C273.514 406.837 274.147 408.894 274.66 410.978C275.006 412.384 275.324 413.84 275.338 415.276C275.405 422.517 275.366 429.758 275.369 437C275.372 440.699 275.319 444.4 275.427 448.097C275.463 449.303 276.116 450.493 276.137 451.696C276.154 452.669 275.666 453.657 275.345 454.619C275.299 454.757 274.803 454.916 274.732 454.846C274.223 454.345 273.371 453.793 273.363 453.246C273.297 448.992 273.46 444.735 273.417 440.481C273.398 438.561 272.957 436.647 272.909 434.727C272.797 430.251 273.3 425.695 272.61 421.32C272.072 417.901 272.203 414.647 272.255 411.286C272.267 410.531 270.163 409.59 268.906 409.008C267.274 408.251 266.237 409.263 265.464 410.62C265.394 410.743 265.101 410.803 265.101 410.893C265.063 418.799 265.012 426.705 265.043 434.611C265.052 436.899 265.315 439.185 265.429 441.474C265.471 442.331 265.38 442.777 266.696 442.576C268.922 442.237 271.844 445.526 271.2 447.404C270.704 448.849 269.805 450.157 269.307 451.602C268.183 454.864 265.725 458.018 266.809 461.562C267.632 464.253 269.414 466.768 271.233 468.982C271.958 469.863 273.943 469.677 275.328 470.066C275.796 470.198 276.342 470.525 276.554 470.923C276.692 471.183 276.393 471.862 276.091 472.094C275.91 472.234 275.348 471.87 274.954 471.742C274.308 471.531 273.672 471.221 273.009 471.142C269.891 470.782 269.718 470.592 268.301 467.12C267.794 465.875 266.841 464.815 266.302 463.579C265.793 462.413 265.505 461.139 265.222 459.89C264.949 458.685 264.587 457.436 264.667 456.233C264.76 454.816 265.173 453.387 265.658 452.039C266.09 450.836 266.834 449.747 267.373 448.577C267.436 448.441 267.115 448.051 266.892 447.892C266.77 447.806 266.438 447.898 266.271 448.012C264.657 449.113 263.888 450.889 262.867 452.445C262.531 452.957 262.635 453.759 262.541 454.428C262.401 455.429 262.132 456.433 262.155 457.43C262.198 459.275 261.991 461.283 262.642 462.923C263.996 466.334 265.308 469.934 268.071 472.47C269.087 473.406 270.775 473.852 272.47 474.08C274.702 474.378 276.818 473.732 279.006 473.981C280.007 474.097 281.094 473.223 282.141 473.228C283.417 473.232 284.416 472.532 285.546 472.35C286.836 472.139 287.902 471.585 289.026 471.051C290.862 470.182 292.853 469.561 294.528 468.456C296.018 467.471 297.155 465.96 298.471 464.707C300.503 462.771 302.217 460.633 303.581 458.142C304.182 457.045 305.135 456.212 304.742 454.823C304.681 454.607 304.527 454.261 304.397 454.253C304.107 454.233 303.711 454.295 303.522 454.486C299.217 458.83 295.019 463.285 290.591 467.5C289.397 468.634 287.53 469.077 285.95 469.793C285.07 470.19 284.128 470.447 283.244 470.836C281.318 471.68 279.791 470.505 278.149 469.892C278.226 469.723 278.271 469.437 278.384 469.404C281.058 468.692 283.768 468.1 286.406 467.277C287.626 466.896 288.766 466.159 289.836 465.428C290.872 464.719 291.729 463.756 292.738 463.001C296.51 460.18 299.597 456.86 301.074 452.248C301.474 451 304.159 450.208 305.705 450.669C306.635 450.947 307.698 450.923 308.517 451.373C309.041 451.661 309.604 452.637 309.501 453.182C308.951 456.09 307.127 458.247 305.092 460.317C303.741 461.692 302.905 463.593 301.5 464.893C299.119 467.095 296.632 469.271 293.887 470.968C291.113 472.685 288.032 473.964 284.968 475.127C282.773 475.959 280.41 476.575 278.079 476.77C274.1 477.105 270.184 476.786 266.655 474.424C264.445 472.942 262.954 470.889 261.803 468.671C261.158 467.43 261.778 465.559 261.213 464.234C260.092 461.605 259.885 458.909 260.121 456.199C260.282 454.351 261.427 452.556 261.434 450.735C261.442 448.689 262.946 447.685 263.602 446.141C263.734 445.829 263.381 445.344 263.379 444.938C263.361 440.318 263.37 435.697 263.367 431.076C263.365 428.75 263.51 426.408 263.284 424.103C263.153 422.764 262.323 421.507 261.993 420.167C261.825 419.485 262.11 418.703 262.119 417.965C262.141 415.872 261.936 413.758 262.174 411.692C262.473 409.094 263.197 406.547 263.59 403.954C263.809 402.506 263.73 401.012 263.781 399.539C263.881 396.641 264.474 393.78 266.493 391.696C268.068 390.07 269.953 388.532 272.568 388.526C273.21 388.524 274.087 387.363 274.443 387.545C275.254 387.958 276.042 388.785 276.361 389.625C276.503 389.998 275.594 390.968 274.973 391.389C273.869 392.139 272.58 392.112 271.232 392.055C269.017 391.958 266.997 394.856 266.143 397.4C265.443 399.487 266.514 401.346 266.037 403.334C265.895 403.925 267.062 404.846 267.674 405.579C267.737 405.656 268.304 405.48 268.305 405.417C268.319 404.163 268.404 402.89 268.224 401.658C268.054 400.493 267.269 399.322 268.726 398.439C268.595 398.294 268.464 398.148 268.334 397.796Z" fill="#FFB61D"/>
<path fill-rule="evenodd" clip-rule="evenodd" d="M350.27 492.562C349.881 494.676 349.467 496.58 349.126 498.492C349.069 498.81 349.417 499.179 349.429 499.53C349.533 502.539 348.984 505.514 348.887 508.523C348.841 509.967 348.969 511.548 348.572 512.967C348.081 514.726 348.79 517.035 346.539 518.069C345.671 518.467 344.395 519.22 343.888 518.897C342.907 518.272 341.275 517.929 341.533 516C341.759 514.304 341.285 512.491 341.646 510.848C342.263 508.038 341.608 505.204 342.092 502.473C342.386 500.817 342.068 499.166 342.452 497.602C343.072 495.078 342.978 492.508 343.312 489.979C343.63 487.575 343.821 485.162 344.135 482.771C344.46 480.296 344.649 477.813 344.984 475.359C345.284 473.162 345.234 470.836 345.866 468.804C346.428 467.002 345.112 464.926 346.869 463.371C347.11 463.157 346.48 462.143 346.576 461.553C347.375 456.646 346.75 451.709 347.001 446.795C347.018 446.448 347.566 445.95 347.959 445.833C349.197 445.467 350.471 445.189 351.749 445.016C352.046 444.975 352.713 445.488 352.709 445.737C352.633 449.955 352.389 454.172 352.369 458.389C352.355 461.434 352.69 464.479 352.721 467.525C352.736 469.007 352.376 470.492 352.251 471.982C352.121 473.53 352.605 475.003 351.693 476.654C351.006 477.896 351.609 479.816 351.494 481.421C351.279 484.426 351.097 487.447 350.573 490.401C350.463 491.026 350.228 491.672 350.27 492.562ZM344.477 514.287C345.156 515.313 345.12 515.284 345.747 514.502C346.485 513.579 345.925 512.504 346.166 511.568C346.814 509.052 346.653 506.474 346.959 503.937C347.205 501.901 347.555 499.87 347.665 497.829C347.807 495.193 347.535 492.52 347.855 489.913C348.13 487.674 348.043 485.427 348.836 483.151C349.64 480.842 349.295 478.132 349.438 475.595C349.472 474.974 349.209 474.209 349.485 473.757C350.426 472.222 349.584 470.621 349.815 469.073C349.846 468.866 349.321 468.581 349.052 468.328C348.898 468.622 348.649 468.899 348.604 469.21C348.308 471.233 347.973 473.253 347.808 475.289C347.588 477.991 347.511 480.71 347.375 483.42C347.364 483.627 347.46 483.9 347.36 484.033C346.239 485.535 347.108 487.327 346.6 489.011C345.957 491.138 346.245 493.546 346.132 495.835C346.129 495.905 346.144 495.976 346.13 496.042C345.791 497.643 345.365 499.236 345.136 500.854C344.951 502.154 345.712 503.342 344.659 504.852C343.86 506.002 344.56 508.146 344.449 509.834C344.382 510.857 343.975 511.854 343.859 512.88C343.825 513.182 344.258 513.542 344.477 514.287ZM349.856 457.594C349.901 456.446 349.948 455.298 349.986 454.151C349.991 453.988 349.952 453.684 349.931 453.684C349.669 453.681 349.191 453.683 349.177 453.759C348.968 454.906 348.775 456.062 348.703 457.223C348.692 457.395 349.318 457.607 349.856 457.594Z" fill="#00160A"/>
<path fill-rule="evenodd" clip-rule="evenodd" d="M269.057 463.283C268.965 462.49 268.977 461.801 268.988 461.111C269.553 461.273 270.184 461.325 270.672 461.617C273.236 463.153 275.753 464.77 278.318 466.306C278.765 466.575 279.356 466.637 279.892 466.714C280.304 466.772 280.734 466.704 281.156 466.692C280.752 467.038 280.269 467.744 279.956 467.674C278.002 467.242 275.675 468.833 274.048 466.633C274.016 466.591 273.836 466.604 273.768 466.651C273.037 467.163 272.218 468.166 271.4 467.195C270.466 466.083 269.891 464.67 269.057 463.283Z" fill="#00160A"/>
</svg>
