<svg width="29" height="28" viewBox="0 0 29 28" fill="none" xmlns="http://www.w3.org/2000/svg">
<path d="M14.551 22.6703L20.851 26.8286C21.6635 27.3614 22.6635 26.5687 22.426 25.5941L20.601 18.1352C20.5516 17.9284 20.5595 17.7114 20.6236 17.5091C20.6877 17.3067 20.8056 17.1274 20.9635 16.9916L26.6135 12.0926C27.351 11.4559 26.976 10.1694 26.0135 10.1044L18.6385 9.61065C18.4372 9.59847 18.2438 9.52563 18.0817 9.40101C17.9197 9.2764 17.7961 9.1054 17.726 8.90893L14.976 1.70987C14.9032 1.50183 14.7706 1.32211 14.5961 1.19512C14.4217 1.06812 14.2139 1 14.001 1C13.788 1 13.5802 1.06812 13.4058 1.19512C13.2314 1.32211 13.0988 1.50183 13.026 1.70987L10.276 8.90893C10.2059 9.1054 10.0823 9.2764 9.92021 9.40101C9.75816 9.52563 9.5647 9.59847 9.36347 9.61065L1.98847 10.1044C1.02597 10.1694 0.650971 11.4559 1.38847 12.0926L7.03847 16.9916C7.19639 17.1274 7.3142 17.3067 7.37834 17.5091C7.44247 17.7114 7.45032 17.9284 7.40097 18.1352L5.71347 25.0484C5.42597 26.2179 6.62597 27.1665 7.58847 26.5297L13.451 22.6703C13.6154 22.5616 13.8062 22.5039 14.001 22.5039C14.1958 22.5039 14.3866 22.5616 14.551 22.6703V22.6703Z" fill="white" stroke="#C4C4C4" stroke-width="2" stroke-linecap="round" stroke-linejoin="round"/>
</svg>
